<svg fill="none" height="15" viewBox="0 0 14 15" width="14" xmlns="http://www.w3.org/2000/svg"><path d="m7 2.07175c-1.15204 0-2.14128.05375-3.13822.10793-.39402.02141-.78924.04288-1.19621.06113-.23136.01038-.45391.09749-.62129.25756-.5442.52044-1.185149 1.26329-1.185149 1.9011 0 .63408.611629 1.28043 1.165809 1.85097.18178.18715.42865.29801.68928.30989.38984.01776.76926.03838 1.14756.05893.99694.05418 1.98614.10793 3.13818.10793-.00001 0 .00001 0 0 0z" fill="#d7e0ff"/><path d="m7 2.07175c-.00001 0 .00001 0 0 0zm0 0c-1.15204 0-2.14128.05375-3.13822.10793-.39402.02141-.78924.04288-1.19621.06113-.23136.01038-.45391.09749-.62129.25756-.5442.52044-1.185149 1.26329-1.185149 1.9011 0 .63408.611629 1.28043 1.165809 1.85097.18178.18715.42865.29801.68928.30989.38984.01776.76926.03838 1.14756.05893.99694.05418 1.98614.10793 3.13818.10793m.00004-4.65544-.00004 4.65544" stroke="#4147d5" stroke-linejoin="round" stroke-width="1.5"/><path d="m7 6.30334c-.00001 0 .00002 0 0 0 1.15204 0 2.14129.05376 3.1382.10793.394.02142.7893.04289 1.1962.06114.2314.01038.4539.09748.6213.25755.5442.52045 1.1852 1.2633 1.1852 1.90111 0 .63408-.6117 1.28043-1.1658 1.85093-.1818.1872-.4287.298-.6893.3099-.3899.0178-.7693.0384-1.1476.059-.99691.0541-1.98612.1079-3.13816.1079z" fill="#fff"/><g stroke="#4147d5" stroke-linejoin="round" stroke-width="1.5"><path d="m7 6.30334c1.15204 0 2.14129.05376 3.1382.10793.394.02142.7893.04289 1.1962.06114.2314.01038.4539.09748.6213.25755.5442.52045 1.1852 1.2633 1.1852 1.90111 0 .63408-.6117 1.28043-1.1658 1.85093-.1818.1872-.4287.298-.6893.3099-.3899.0178-.7693.0384-1.1476.059-.99691.0541-1.98612.1079-3.13816.1079m-.00004-4.65546.00004 4.65546m0 0c-.00001 0 .00001 0 0 0z"/><path d="m7 2.11732v11.94788" stroke-linecap="round"/></g></svg>