<svg height="11" viewBox="0 0 11 11" width="11" xmlns="http://www.w3.org/2000/svg"><path d="m11 3.75c0-.9665-.7835-1.75-1.75-1.75-.2789.0012-.5534.0698-.8.2-.0216-.6692-.5705-1.2003-1.24-1.2-.0714.0103-.1417.027-.21.05-.0909-.6159-.6276-1.0668-1.25-1.05-.4867.0026-.9276.2874-1.13.73-.1834-.1256-.398-.1983-.62-.21-.4034.0082-.777.2138-1 .55-.1583-.0505-.3239-.0741-.49-.07-.8339-.0009-1.5108.6743-1.5117 1.5083-.0002.196.0377.3902.1117.5717-.808.1558-1.3368.9371-1.181 1.7451.1132.5871.5664 1.0497 1.151 1.1749.2492.7843 1.087 1.218 1.8713.9688.2635-.0837.4985-.2391.6787-.4488h.12c.3212-.0009.6295-.1264.86-.35v3.83l-1.61 1h5l-1.6-1v-1c.6623-.8086 1.4694-1.4868 2.38-2 .2593-.0493.5009-.1667.7-.34.3379-.2896.5286-.7151.52-1.16.0033-.0566.0033-.1134 0-.17.6103-.2895.9996-.9045 1-1.58zm-4.64 4.5v-2.25h.18c.1812-.0015.3607-.0353.53-.1.1232.4546.4528.8249.89 1-.585.3849-1.1222.8381-1.6 1.35z"/></svg>